<svg width="33" height="108" viewBox="0 0 33 108" fill="none" xmlns="http://www.w3.org/2000/svg">
<g clip-path="url(#clip0_2_199)">
<path d="M4.71429 11.5714C7.31791 11.5714 9.42857 9.46077 9.42857 6.85714C9.42857 4.25351 7.31791 2.14285 4.71429 2.14285C2.11066 2.14285 0 4.25351 0 6.85714C0 9.46077 2.11066 11.5714 4.71429 11.5714Z" fill="#2295F2" fill-opacity="0.28"/>
<path d="M4.71429 35.1429C7.31791 35.1429 9.42857 33.0322 9.42857 30.4286C9.42857 27.825 7.31791 25.7143 4.71429 25.7143C2.11066 25.7143 0 27.825 0 30.4286C0 33.0322 2.11066 35.1429 4.71429 35.1429Z" fill="#2295F2" fill-opacity="0.28"/>
<path d="M4.71429 58.7143C7.31791 58.7143 9.42857 56.6036 9.42857 54C9.42857 51.3964 7.31791 49.2857 4.71429 49.2857C2.11066 49.2857 0 51.3964 0 54C0 56.6036 2.11066 58.7143 4.71429 58.7143Z" fill="#2295F2" fill-opacity="0.28"/>
<path d="M4.71429 82.2857C7.31791 82.2857 9.42857 80.175 9.42857 77.5714C9.42857 74.9678 7.31791 72.8571 4.71429 72.8571C2.11066 72.8571 0 74.9678 0 77.5714C0 80.175 2.11066 82.2857 4.71429 82.2857Z" fill="#2295F2" fill-opacity="0.28"/>
<path d="M4.71429 105.857C7.31791 105.857 9.42857 103.747 9.42857 101.143C9.42857 98.5392 7.31791 96.4286 4.71429 96.4286C2.11066 96.4286 0 98.5392 0 101.143C0 103.747 2.11066 105.857 4.71429 105.857Z" fill="#2295F2" fill-opacity="0.28"/>
<path d="M28.2857 11.5714C30.8893 11.5714 33 9.46077 33 6.85714C33 4.25351 30.8893 2.14285 28.2857 2.14285C25.6821 2.14285 23.5714 4.25351 23.5714 6.85714C23.5714 9.46077 25.6821 11.5714 28.2857 11.5714Z" fill="#2295F2" fill-opacity="0.28"/>
<path d="M28.2857 35.1429C30.8893 35.1429 33 33.0322 33 30.4286C33 27.825 30.8893 25.7143 28.2857 25.7143C25.6821 25.7143 23.5714 27.825 23.5714 30.4286C23.5714 33.0322 25.6821 35.1429 28.2857 35.1429Z" fill="#2295F2" fill-opacity="0.28"/>
<path d="M28.2857 58.7143C30.8893 58.7143 33 56.6036 33 54C33 51.3964 30.8893 49.2857 28.2857 49.2857C25.6821 49.2857 23.5714 51.3964 23.5714 54C23.5714 56.6036 25.6821 58.7143 28.2857 58.7143Z" fill="#2295F2" fill-opacity="0.28"/>
<path d="M28.2857 82.2857C30.8893 82.2857 33 80.175 33 77.5714C33 74.9678 30.8893 72.8571 28.2857 72.8571C25.6821 72.8571 23.5714 74.9678 23.5714 77.5714C23.5714 80.175 25.6821 82.2857 28.2857 82.2857Z" fill="#2295F2" fill-opacity="0.28"/>
<path d="M28.2857 105.857C30.8893 105.857 33 103.747 33 101.143C33 98.5392 30.8893 96.4286 28.2857 96.4286C25.6821 96.4286 23.5714 98.5392 23.5714 101.143C23.5714 103.747 25.6821 105.857 28.2857 105.857Z" fill="#2295F2" fill-opacity="0.28"/>
</g>
<defs>
<clipPath id="clip0_2_199">
<rect width="33" height="108" fill="white"/>
</clipPath>
</defs>
</svg>
