<svg width="116" height="35" viewBox="0 0 116 35" fill="none" xmlns="http://www.w3.org/2000/svg">
<path d="M14.9002 24.535C14.1694 25.165 13.3033 25.6667 12.3018 26.04C11.3003 26.39 10.2312 26.565 9.09439 26.565C7.95759 26.565 6.88846 26.39 5.887 26.04C4.9126 25.6667 4.06 25.165 3.3292 24.535C2.5984 23.905 2.01646 23.1817 1.5834 22.365C1.1774 21.5483 0.974396 20.65 0.974396 19.67C0.974396 18.7367 1.1774 17.85 1.5834 17.01C2.01646 16.17 2.5984 15.435 3.3292 14.805C4.06 14.1983 4.9126 13.72 5.887 13.37C6.88846 12.9967 7.95759 12.81 9.09439 12.81C10.2312 12.81 11.3003 12.9967 12.3018 13.37C13.3033 13.72 14.1694 14.1983 14.9002 14.805C15.631 15.435 16.1994 16.17 16.6054 17.01C17.0385 17.85 17.255 18.7367 17.255 19.67C17.255 20.6267 17.0385 21.525 16.6054 22.365C16.1994 23.1817 15.631 23.905 14.9002 24.535ZM5.7246 22.54C6.1306 22.9133 6.6178 23.205 7.1862 23.415C7.7546 23.625 8.36359 23.73 9.01319 23.73C9.66279 23.73 10.2718 23.625 10.8402 23.415C11.4086 23.205 11.9093 22.9133 12.3424 22.54C12.7755 22.19 13.1138 21.77 13.3574 21.28C13.601 20.79 13.7228 20.265 13.7228 19.705C13.7228 19.145 13.601 18.62 13.3574 18.13C13.1138 17.64 12.7755 17.2083 12.3424 16.835C11.9093 16.4617 11.4086 16.17 10.8402 15.96C10.2718 15.75 9.66279 15.645 9.01319 15.645C8.36359 15.645 7.7546 15.75 7.1862 15.96C6.6178 16.17 6.1306 16.4617 5.7246 16.835C5.29153 17.2083 4.9532 17.64 4.7096 18.13C4.466 18.62 4.3442 19.145 4.3442 19.705C4.3442 20.265 4.466 20.79 4.7096 21.28C4.9532 21.77 5.29153 22.19 5.7246 22.54ZM26.6622 26.25H17.649V23.485H20.7346V15.89H18.055V13.125H23.6984V13.44C23.7525 14 23.7931 14.5133 23.8202 14.98C23.8743 15.4233 23.9284 15.925 23.9826 16.485C24.5239 15.365 25.39 14.4783 26.581 13.825C27.799 13.1483 29.1388 12.81 30.6004 12.81C32.1973 12.81 33.4559 13.1717 34.3762 13.895C35.2964 14.6183 35.7836 15.5633 35.8378 16.73V23.485H38.355V26.25H29.3418V23.485H32.468V18.06C32.4138 17.43 32.1432 16.8933 31.656 16.45C31.1958 15.9833 30.4515 15.7267 29.423 15.68C28.7193 15.68 28.0426 15.785 27.393 15.995C26.7704 16.205 26.2156 16.4967 25.7284 16.87C25.2412 17.2433 24.8487 17.6867 24.551 18.2C24.2532 18.7133 24.1044 19.2733 24.1044 19.88V23.485H26.6622V26.25ZM50.0914 35H41.0782V32.235H44.7322C45.3006 31.2317 45.869 30.2283 46.4374 29.225C47.0329 28.2217 47.6284 27.23 48.2238 26.25C47.1953 24.5 46.1803 22.7733 45.1788 21.07C44.2044 19.3667 43.203 17.64 42.1744 15.89H38.764V13.125H47.7772V15.89H45.6254C46.4104 17.1733 47.1953 18.4683 47.9802 19.775C48.7652 21.0583 49.4148 22.3533 49.929 23.66C50.4433 22.3533 51.0794 21.0583 51.8372 19.775C52.6222 18.4683 53.4071 17.1733 54.192 15.89H51.6748V13.125H60.9722V15.89H57.643C56.0461 18.6433 54.4492 21.3733 52.8522 24.08C51.2824 26.7633 49.699 29.4817 48.102 32.235H50.0914V35ZM69.506 15.645C68.7481 15.645 68.0579 15.7617 67.4354 15.995C66.8399 16.205 66.3257 16.5083 65.8926 16.905C65.5678 17.2317 65.2971 17.605 65.0806 18.025C64.8911 18.445 64.7829 18.9 64.7558 19.39C66.0279 18.9933 67.2865 18.5967 68.5316 18.2C69.8037 17.78 71.0759 17.3717 72.348 16.975C71.9691 16.5783 71.536 16.2633 71.0488 16.03C70.5887 15.7733 70.0744 15.645 69.506 15.645ZM74.6622 24.71C73.9855 25.2933 73.2141 25.7483 72.348 26.075C71.4819 26.4017 70.5345 26.565 69.506 26.565C68.3692 26.565 67.3001 26.39 66.2986 26.04C65.3242 25.6667 64.4716 25.165 63.7408 24.535C63.01 23.905 62.4281 23.1817 61.995 22.365C61.589 21.525 61.386 20.6267 61.386 19.67C61.386 18.7367 61.589 17.85 61.995 17.01C62.4281 16.17 63.01 15.435 63.7408 14.805C64.4716 14.1983 65.3242 13.72 66.2986 13.37C67.3001 12.9967 68.3692 12.81 69.506 12.81C70.3451 12.81 71.1435 12.9617 71.9014 13.265C72.6863 13.545 73.3901 13.9417 74.0126 14.455C74.6081 14.9683 75.1359 15.5867 75.596 16.31C76.0561 17.01 76.408 17.78 76.6516 18.62C74.8111 19.2033 72.9705 19.7867 71.13 20.37C69.3165 20.9533 67.4895 21.5367 65.649 22.12C66.055 22.61 66.5828 23.0067 67.2324 23.31C67.9091 23.59 68.6669 23.73 69.506 23.73C70.1285 23.73 70.6969 23.6367 71.2112 23.45C71.7255 23.2633 72.1856 22.9833 72.5916 22.61L74.6622 24.71ZM77.2278 26.25V23.485H80.3134V2.765H77.6338V0H83.6832V18.865L87.3778 15.89H85.8756V13.125H94.0362V15.89H91.519C90.9235 16.3567 90.3416 16.835 89.7732 17.325C89.2048 17.815 88.6229 18.2933 88.0274 18.76C88.677 19.5533 89.3266 20.3467 89.9762 21.14C90.6529 21.91 91.3295 22.6917 92.0062 23.485H95.782V26.25H87.6214V23.485H88.068C87.662 23.0183 87.256 22.5517 86.85 22.085C86.444 21.595 86.0515 21.1167 85.6726 20.65L83.6832 22.26V23.485H86.241V26.25H77.2278ZM115.568 26.25H109.519V25.55C109.519 25.3867 109.519 25.27 109.519 25.2C109.519 25.13 109.519 25.0133 109.519 24.85C109.492 24.92 109.356 25.0483 109.113 25.235C108.869 25.4217 108.531 25.6083 108.098 25.795C107.638 26.005 107.096 26.18 106.474 26.32C105.851 26.4833 105.148 26.565 104.363 26.565C103.226 26.565 102.157 26.39 101.155 26.04C100.154 25.6667 99.2876 25.165 98.5568 24.535C97.826 23.905 97.2441 23.1817 96.811 22.365C96.405 21.525 96.202 20.6383 96.202 19.705C96.202 18.795 96.405 17.92 96.811 17.08C97.2441 16.24 97.826 15.505 98.5568 14.875C99.2876 14.245 100.154 13.7433 101.155 13.37C102.157 12.9967 103.226 12.81 104.363 12.81C105.851 12.81 107.029 13.0433 107.895 13.51C108.761 13.9533 109.302 14.3733 109.519 14.77C109.546 14.5367 109.573 14.28 109.6 14C109.654 13.6967 109.681 13.405 109.681 13.125H112.483V23.485H115.568V26.25ZM104.363 15.645C103.632 15.645 102.955 15.7617 102.333 15.995C101.71 16.205 101.196 16.5083 100.79 16.905C100.411 17.255 100.113 17.6633 99.8966 18.13C99.7072 18.5967 99.6124 19.11 99.6124 19.67C99.6124 20.3233 99.7613 20.93 100.059 21.49C100.384 22.05 100.817 22.5167 101.358 22.89C101.737 23.1467 102.184 23.3567 102.698 23.52C103.212 23.66 103.767 23.73 104.363 23.73C105.039 23.73 105.648 23.6367 106.19 23.45C106.758 23.2633 107.245 23.0067 107.651 22.68C108.111 22.3067 108.463 21.8633 108.707 21.35C108.977 20.8367 109.113 20.2767 109.113 19.67C109.113 19.0633 108.977 18.5033 108.707 17.99C108.463 17.4767 108.125 17.045 107.692 16.695C107.259 16.3683 106.758 16.1117 106.19 15.925C105.648 15.7383 105.039 15.645 104.363 15.645Z" fill="#CCF381"/>
<path d="M68.74 31C69.701 31 70.48 30.3284 70.48 29.5C70.48 28.6716 69.701 25.5 68.74 25.5C67.779 25.5 67 28.6716 67 29.5C67 30.3284 67.779 31 68.74 31Z" fill="#CCF381"/>
<path d="M105.74 11C106.701 11 107.48 10.3284 107.48 9.5C107.48 8.67157 106.701 8 105.74 8C104.779 8 104 8.67157 104 9.5C104 10.3284 104.779 11 105.74 11Z" fill="#CCF381"/>
</svg>
