<svg width="100" height="30" viewBox="0 0 100 30" fill="none" xmlns="http://www.w3.org/2000/svg">
<path d="M9.072 16.824C8.64 17.256 8.128 17.6 7.536 17.856C6.944 18.096 6.312 18.216 5.64 18.216C4.968 18.216 4.336 18.096 3.744 17.856C3.168 17.6 2.664 17.256 2.232 16.824C1.8 16.392 1.456 15.896 1.2 15.336C0.96 14.776 0.84 14.16 0.84 13.488C0.84 12.848 0.96 12.24 1.2 11.664C1.456 11.088 1.8 10.584 2.232 10.152C2.664 9.736 3.168 9.408 3.744 9.168C4.336 8.912 4.968 8.784 5.64 8.784C6.312 8.784 6.944 8.912 7.536 9.168C8.128 9.408 8.64 9.736 9.072 10.152C9.504 10.584 9.84 11.088 10.08 11.664C10.336 12.24 10.464 12.848 10.464 13.488C10.464 14.144 10.336 14.76 10.08 15.336C9.84 15.896 9.504 16.392 9.072 16.824ZM3.648 15.456C3.888 15.712 4.176 15.912 4.512 16.056C4.848 16.2 5.208 16.272 5.592 16.272C5.976 16.272 6.336 16.2 6.672 16.056C7.008 15.912 7.304 15.712 7.56 15.456C7.816 15.216 8.016 14.928 8.16 14.592C8.304 14.256 8.376 13.896 8.376 13.512C8.376 13.128 8.304 12.768 8.16 12.432C8.016 12.096 7.816 11.8 7.56 11.544C7.304 11.288 7.008 11.088 6.672 10.944C6.336 10.8 5.976 10.728 5.592 10.728C5.208 10.728 4.848 10.8 4.512 10.944C4.176 11.088 3.888 11.288 3.648 11.544C3.392 11.8 3.192 12.096 3.048 12.432C2.904 12.768 2.832 13.128 2.832 13.512C2.832 13.896 2.904 14.256 3.048 14.592C3.192 14.928 3.392 15.216 3.648 15.456ZM16.0249 18H10.6969V16.104H12.5209V10.896H10.9369V9H14.2729V9.216C14.3049 9.6 14.3289 9.952 14.3449 10.272C14.3769 10.576 14.4089 10.92 14.4409 11.304C14.7609 10.536 15.2729 9.928 15.9769 9.48C16.6969 9.016 17.4889 8.784 18.3529 8.784C19.2969 8.784 20.0409 9.032 20.5849 9.528C21.1289 10.024 21.4169 10.672 21.4489 11.472V16.104H22.9369V18H17.6089V16.104H19.4569V12.384C19.4249 11.952 19.2649 11.584 18.9769 11.28C18.7049 10.96 18.2649 10.784 17.6569 10.752C17.2409 10.752 16.8409 10.824 16.4569 10.968C16.0889 11.112 15.7609 11.312 15.4729 11.568C15.1849 11.824 14.9529 12.128 14.7769 12.48C14.6009 12.832 14.5129 13.216 14.5129 13.632V16.104H16.0249V18ZM29.8747 24H24.5467V22.104H26.7067C27.0427 21.416 27.3787 20.728 27.7147 20.04C28.0667 19.352 28.4187 18.672 28.7707 18C28.1627 16.8 27.5627 15.616 26.9707 14.448C26.3947 13.28 25.8027 12.096 25.1947 10.896H23.1787V9H28.5067V10.896H27.2347C27.6987 11.776 28.1627 12.664 28.6267 13.56C29.0907 14.44 29.4747 15.328 29.7787 16.224C30.0827 15.328 30.4587 14.44 30.9067 13.56C31.3707 12.664 31.8347 11.776 32.2987 10.896H30.8107V9H36.3067V10.896H34.3387C33.3947 12.784 32.4507 14.656 31.5067 16.512C30.5787 18.352 29.6427 20.216 28.6987 22.104H29.8747V24ZM41.3513 10.728C40.9033 10.728 40.4953 10.808 40.1273 10.968C39.7753 11.112 39.4713 11.32 39.2153 11.592C39.0233 11.816 38.8633 12.072 38.7353 12.36C38.6233 12.648 38.5593 12.96 38.5433 13.296C39.2953 13.024 40.0393 12.752 40.7753 12.48C41.5273 12.192 42.2793 11.912 43.0313 11.64C42.8073 11.368 42.5513 11.152 42.2633 10.992C41.9913 10.816 41.6873 10.728 41.3513 10.728ZM44.3993 16.944C43.9993 17.344 43.5433 17.656 43.0313 17.88C42.5193 18.104 41.9593 18.216 41.3513 18.216C40.6793 18.216 40.0473 18.096 39.4553 17.856C38.8793 17.6 38.3753 17.256 37.9433 16.824C37.5113 16.392 37.1673 15.896 36.9113 15.336C36.6713 14.76 36.5513 14.144 36.5513 13.488C36.5513 12.848 36.6713 12.24 36.9113 11.664C37.1673 11.088 37.5113 10.584 37.9433 10.152C38.3753 9.736 38.8793 9.408 39.4553 9.168C40.0473 8.912 40.6793 8.784 41.3513 8.784C41.8473 8.784 42.3193 8.888 42.7673 9.096C43.2313 9.288 43.6473 9.56 44.0153 9.912C44.3673 10.264 44.6793 10.688 44.9513 11.184C45.2233 11.664 45.4313 12.192 45.5753 12.768C44.4873 13.168 43.3993 13.568 42.3113 13.968C41.2393 14.368 40.1593 14.768 39.0713 15.168C39.3113 15.504 39.6233 15.776 40.0073 15.984C40.4073 16.176 40.8553 16.272 41.3513 16.272C41.7193 16.272 42.0553 16.208 42.3593 16.08C42.6633 15.952 42.9353 15.76 43.1753 15.504L44.3993 16.944ZM45.9159 18V16.104H47.7399V1.896H46.1559V-1.43051e-06H49.7319V12.936L51.9159 10.896H51.0279V9H55.8519V10.896H54.3639C54.0119 11.216 53.6679 11.544 53.3319 11.88C52.9959 12.216 52.6519 12.544 52.2999 12.864C52.6839 13.408 53.0679 13.952 53.4519 14.496C53.8519 15.024 54.2519 15.56 54.6519 16.104H56.8839V18H52.0599V16.104H52.3239C52.0839 15.784 51.8439 15.464 51.6039 15.144C51.3639 14.808 51.1319 14.48 50.9079 14.16L49.7319 15.264V16.104H51.2439V18H45.9159ZM68.5802 18H65.0042V17.52C65.0042 17.408 65.0042 17.328 65.0042 17.28C65.0042 17.232 65.0042 17.152 65.0042 17.04C64.9882 17.088 64.9082 17.176 64.7642 17.304C64.6202 17.432 64.4202 17.56 64.1642 17.688C63.8922 17.832 63.5722 17.952 63.2042 18.048C62.8362 18.16 62.4202 18.216 61.9562 18.216C61.2842 18.216 60.6522 18.096 60.0602 17.856C59.4682 17.6 58.9562 17.256 58.5242 16.824C58.0922 16.392 57.7482 15.896 57.4922 15.336C57.2522 14.76 57.1322 14.152 57.1322 13.512C57.1322 12.888 57.2522 12.288 57.4922 11.712C57.7482 11.136 58.0922 10.632 58.5242 10.2C58.9562 9.768 59.4682 9.424 60.0602 9.168C60.6522 8.912 61.2842 8.784 61.9562 8.784C62.8362 8.784 63.5322 8.944 64.0442 9.264C64.5562 9.568 64.8762 9.856 65.0042 10.128C65.0202 9.968 65.0362 9.792 65.0522 9.6C65.0842 9.392 65.1002 9.192 65.1002 9H66.7562V16.104H68.5802V18ZM61.9562 10.728C61.5242 10.728 61.1242 10.808 60.7562 10.968C60.3882 11.112 60.0842 11.32 59.8442 11.592C59.6202 11.832 59.4442 12.112 59.3162 12.432C59.2042 12.752 59.1482 13.104 59.1482 13.488C59.1482 13.936 59.2362 14.352 59.4122 14.736C59.6042 15.12 59.8602 15.44 60.1802 15.696C60.4042 15.872 60.6682 16.016 60.9722 16.128C61.2762 16.224 61.6042 16.272 61.9562 16.272C62.3562 16.272 62.7162 16.208 63.0362 16.08C63.3722 15.952 63.6602 15.776 63.9002 15.552C64.1722 15.296 64.3802 14.992 64.5242 14.64C64.6842 14.288 64.7642 13.904 64.7642 13.488C64.7642 13.072 64.6842 12.688 64.5242 12.336C64.3802 11.984 64.1802 11.688 63.9242 11.448C63.6682 11.224 63.3722 11.048 63.0362 10.92C62.7162 10.792 62.3562 10.728 61.9562 10.728Z" fill="#CCF381"/>
<circle cx="62.5" cy="5.5" r="1.5" fill="#CCF381"/>
<circle cx="41.5" cy="21.5" r="1.5" fill="#CCF381"/>
</svg>
