<svg width="25" height="54" viewBox="0 0 25 54" fill="none" xmlns="http://www.w3.org/2000/svg">
<path d="M22.9688 32.043C22.9688 33.8659 22.7214 35.4805 22.2266 36.8867C21.7448 38.293 21.0352 39.4844 20.0977 40.4609C19.1732 41.4245 18.0534 42.1536 16.7383 42.6484C15.4362 43.1432 13.9648 43.3906 12.3242 43.3906C10.7878 43.3906 9.375 43.1432 8.08594 42.6484C6.8099 42.1536 5.69661 41.4245 4.74609 40.4609C3.80859 39.4844 3.07943 38.293 2.55859 36.8867C2.05078 35.4805 1.79688 33.8659 1.79688 32.043C1.79688 29.6211 2.22656 27.5703 3.08594 25.8906C3.94531 24.2109 5.16927 22.9349 6.75781 22.0625C8.34635 21.1901 10.2409 20.7539 12.4414 20.7539C14.4857 20.7539 16.2956 21.1901 17.8711 22.0625C19.4596 22.9349 20.7031 24.2109 21.6016 25.8906C22.513 27.5703 22.9688 29.6211 22.9688 32.043ZM7.87109 32.043C7.87109 33.4753 8.02734 34.6797 8.33984 35.6562C8.65234 36.6328 9.14062 37.3685 9.80469 37.8633C10.4688 38.3581 11.3346 38.6055 12.4023 38.6055C13.457 38.6055 14.3099 38.3581 14.9609 37.8633C15.625 37.3685 16.1068 36.6328 16.4062 35.6562C16.7188 34.6797 16.875 33.4753 16.875 32.043C16.875 30.5977 16.7188 29.3997 16.4062 28.4492C16.1068 27.4857 15.625 26.763 14.9609 26.2812C14.2969 25.7995 13.431 25.5586 12.3633 25.5586C10.7878 25.5586 9.64193 26.099 8.92578 27.1797C8.22266 28.2604 7.87109 29.8815 7.87109 32.043Z" fill="#CCF381"/>
<path d="M12.5309 49C13.9287 49 15.0618 48.0232 15.0618 46.8182C15.0618 45.6132 13.9287 41 12.5309 41C11.1331 41 10 45.6132 10 46.8182C10 48.0232 11.1331 49 12.5309 49Z" fill="#CCF381"/>
</svg>
