<svg width="15" height="24" viewBox="0 0 15 24" fill="none" xmlns="http://www.w3.org/2000/svg">
<path d="M13.7812 12.4258C13.7812 13.5195 13.6328 14.4883 13.3359 15.332C13.0469 16.1758 12.6211 16.8906 12.0586 17.4766C11.5039 18.0547 10.832 18.4922 10.043 18.7891C9.26172 19.0859 8.37891 19.2344 7.39453 19.2344C6.47266 19.2344 5.625 19.0859 4.85156 18.7891C4.08594 18.4922 3.41797 18.0547 2.84766 17.4766C2.28516 16.8906 1.84766 16.1758 1.53516 15.332C1.23047 14.4883 1.07812 13.5195 1.07812 12.4258C1.07812 10.9727 1.33594 9.74219 1.85156 8.73438C2.36719 7.72656 3.10156 6.96094 4.05469 6.4375C5.00781 5.91406 6.14453 5.65234 7.46484 5.65234C8.69141 5.65234 9.77734 5.91406 10.7227 6.4375C11.6758 6.96094 12.4219 7.72656 12.9609 8.73438C13.5078 9.74219 13.7812 10.9727 13.7812 12.4258ZM4.72266 12.4258C4.72266 13.2852 4.81641 14.0078 5.00391 14.5938C5.19141 15.1797 5.48438 15.6211 5.88281 15.918C6.28125 16.2148 6.80078 16.3633 7.44141 16.3633C8.07422 16.3633 8.58594 16.2148 8.97656 15.918C9.375 15.6211 9.66406 15.1797 9.84375 14.5938C10.0312 14.0078 10.125 13.2852 10.125 12.4258C10.125 11.5586 10.0312 10.8398 9.84375 10.2695C9.66406 9.69141 9.375 9.25781 8.97656 8.96875C8.57812 8.67969 8.05859 8.53516 7.41797 8.53516C6.47266 8.53516 5.78516 8.85938 5.35547 9.50781C4.93359 10.1562 4.72266 11.1289 4.72266 12.4258Z" fill="#CCF381"/>
<path d="M7.74 23.5C8.70098 23.5 9.48 22.8284 9.48 22C9.48 21.1716 8.70098 18 7.74 18C6.77902 18 6 21.1716 6 22C6 22.8284 6.77902 23.5 7.74 23.5Z" fill="#CCF381"/>
</svg>
